<svg width="36" height="36" viewBox="0 0 36 36" fill="none" xmlns="http://www.w3.org/2000/svg">
<path d="M17.917 10.2471C20.9112 10.2472 23.457 11.383 25.5537 13.6543C27.6504 15.9256 28.6991 18.6811 28.6992 21.9199C28.6992 23.115 28.3193 24.1265 27.5605 24.9531C26.8018 25.7797 25.8838 26.1924 24.8066 26.1914C23.7074 26.1914 22.7722 25.7787 22.002 24.9531C21.2317 24.1275 20.8477 23.116 20.8486 21.9199C20.8485 21.0563 20.5697 20.3199 20.0127 19.7119C19.4565 19.1049 18.7742 18.8018 17.9668 18.8018C17.1418 18.8018 16.447 19.105 15.8828 19.7119C15.3178 20.3199 15.0353 21.0563 15.0352 21.9199C15.0352 24.3111 15.6743 26.3654 16.9521 28.082C18.2291 29.7987 20.069 31.0625 22.4717 31.873L22.1924 32.998C19.6136 32.1976 17.6061 30.8315 16.1699 28.9004C14.7338 26.9693 14.0146 24.6424 14.0146 21.9199C14.0148 20.725 14.4007 19.7133 15.1709 18.8848C15.9411 18.0543 16.873 17.6387 17.9668 17.6387C19.0429 17.6387 19.9623 18.0534 20.7246 18.8828C21.4859 19.7123 21.8671 20.725 21.8672 21.9199C21.8672 22.7837 22.1511 23.5198 22.7188 24.1279C23.2856 24.7351 23.9815 25.0391 24.8066 25.0391C25.6088 25.0391 26.2875 24.7351 26.8438 24.1279C27.4009 23.5198 27.6797 22.7838 27.6797 21.9199C27.6796 18.9922 26.7333 16.5066 24.8408 14.4639C22.9501 12.4222 20.6439 11.4014 17.9229 11.4014C15.2364 11.4014 12.9472 12.4222 11.0557 14.4639C9.16493 16.5077 8.21977 18.9904 8.21973 21.9111C8.21973 22.7347 8.3024 23.6264 8.46777 24.585C8.63314 25.5433 8.90366 26.6556 9.28027 27.9219L8.36621 28.3906C7.96825 27.1945 7.67451 26.0615 7.48438 24.9922C7.29425 23.925 7.19922 22.9006 7.19922 21.9199C7.19932 18.6811 8.24066 15.9256 10.3232 13.6543C12.4059 11.383 14.9376 10.2471 17.917 10.2471ZM18.3633 13.9492C20.3272 14.0438 21.9556 14.8474 23.248 16.3594C24.6267 17.9722 25.3153 20.0202 25.3145 22.5029H24.2949C24.2948 20.3455 23.7027 18.5729 22.5195 17.1846C21.3354 15.7972 19.8176 15.1036 17.9658 15.1035C16.2122 15.1035 14.7216 15.7706 13.4941 17.1055C12.2658 18.4405 11.6514 20.0461 11.6514 21.9219C11.6514 23.8409 11.9462 25.534 12.5352 27.001C13.1233 28.4669 14.1822 30.1187 15.7129 31.9561L14.9893 32.7803C13.4151 30.8744 12.295 29.0974 11.6309 27.4482C10.9667 25.799 10.6346 23.9558 10.6328 21.9199C10.6329 19.693 11.3438 17.8062 12.7666 16.2598C14.1895 14.7133 15.9231 13.9395 17.9668 13.9385L18.3633 13.9492ZM18.4189 21.3389C18.4189 22.4917 18.5743 23.5142 18.8838 24.4062C19.1933 25.2982 19.6524 26.0656 20.2607 26.709C20.8356 27.3071 21.4908 27.7686 22.2266 28.0928C22.9623 28.4169 23.7337 28.58 24.541 28.5811C24.8656 28.5811 25.1838 28.5506 25.4951 28.4912C25.8064 28.4318 26.1198 28.3655 26.4346 28.292L26.6396 29.3301C26.2984 29.4539 25.954 29.5534 25.6074 29.6289C25.2609 29.7044 24.9052 29.7422 24.541 29.7422C23.6019 29.7421 22.6998 29.5514 21.835 29.1709C20.9702 28.7903 20.2037 28.2356 19.5361 27.5059C18.8286 26.7507 18.2956 25.859 17.9365 24.832C17.5775 23.8051 17.3975 22.6407 17.3975 21.3389H18.4189ZM17.917 6.69824C20.3807 6.69832 22.6364 7.30446 24.6836 8.51562C26.7307 9.72686 28.5029 11.5021 30 13.8408L29.1182 14.5137C27.7757 12.338 26.1571 10.6853 24.2637 9.55566C22.3705 8.42621 20.2549 7.86046 17.917 7.85938C15.6513 7.85938 13.581 8.42137 11.707 9.54492C9.83305 10.6686 8.19084 12.3405 6.78027 14.5596L6 13.8662C7.5184 11.5405 9.29159 9.76442 11.3193 8.53809C13.3472 7.31175 15.5469 6.69824 17.917 6.69824ZM18.498 3.00781C19.7325 3.05188 20.9383 3.25017 22.1152 3.60254C23.4603 4.00528 24.8843 4.64919 26.3867 5.53516L25.957 6.61426C24.619 5.75343 23.3099 5.12885 22.0303 4.74121C20.7506 4.35357 19.3959 4.15918 17.9668 4.15918C16.627 4.15919 15.3252 4.35637 14.0615 4.74902C12.7979 5.14166 11.4489 5.7599 10.0146 6.60449L9.67188 5.57324C11.0117 4.70031 12.3589 4.05273 13.7129 3.63086C15.0668 3.20904 16.4846 2.99899 17.9658 3L18.498 3.00781Z" fill="#284243"/>
</svg>
