<svg width="94" height="94" viewBox="0 0 94 94" fill="none" xmlns="http://www.w3.org/2000/svg">
<path d="M79.3125 14.6875H14.6875C13.1294 14.6875 11.635 15.3065 10.5332 16.4082C9.43147 17.51 8.8125 19.0044 8.8125 20.5625V73.4375C8.8125 74.9956 9.43147 76.49 10.5332 77.5918C11.635 78.6935 13.1294 79.3125 14.6875 79.3125H38.1875C38.8041 79.3125 39.405 79.1186 39.9052 78.7581C40.4054 78.3976 40.7795 77.8889 40.9745 77.304L46.4198 60.9715L59.8516 55.6032C60.2205 55.4542 60.5556 55.2324 60.837 54.951C61.1184 54.6696 61.3402 54.3345 61.4892 53.9655L66.8575 40.5448L83.19 35.0995C83.7729 34.9026 84.2792 34.5277 84.6376 34.0277C84.996 33.5276 85.1883 32.9277 85.1875 32.3125V20.5625C85.1875 19.0044 84.5685 17.51 83.4668 16.4082C82.365 15.3065 80.8706 14.6875 79.3125 14.6875ZM41.2755 57.821L36.0688 73.4375H14.6875V63.1562L33.7812 44.0625L44.9511 55.2323L42.9609 56.0218C42.5664 56.1817 42.2114 56.4254 41.9204 56.736C41.6293 57.0467 41.4093 57.4169 41.2755 57.821ZM79.3125 30.1938L63.696 35.4005C63.2908 35.5355 62.9199 35.7572 62.6092 36.0502C62.2985 36.3432 62.0554 36.7004 61.8968 37.097L56.4918 50.6168L50.8848 52.875L37.9341 39.9243C36.8325 38.8234 35.3387 38.2049 33.7812 38.2049C32.2238 38.2049 30.73 38.8234 29.6284 39.9243L14.6875 54.8468V20.5625H79.3125V30.1938ZM83.9684 42.311C83.5908 42.0387 83.1537 41.86 82.6934 41.7898C82.2331 41.7196 81.7627 41.7598 81.321 41.9071L72.582 44.8226C72.1771 44.9572 71.8065 45.1783 71.4958 45.4706C71.185 45.7629 70.9417 46.1194 70.7827 46.5153L65.5283 59.6496L52.394 64.9041C51.9981 65.0631 51.6416 65.3064 51.3493 65.6171C51.057 65.9278 50.8358 66.2985 50.7013 66.7033L47.7858 75.4423C47.6379 75.8841 47.5971 76.3548 47.667 76.8154C47.7369 77.2761 47.9153 77.7135 48.1875 78.0916C48.4598 78.4697 48.8181 78.7775 49.2328 78.9898C49.6475 79.2021 50.1068 79.3127 50.5727 79.3125H79.3125C80.8706 79.3125 82.365 78.6935 83.4668 77.5918C84.5685 76.49 85.1875 74.9956 85.1875 73.4375V44.6977C85.1876 44.2324 85.0771 43.7736 84.8652 43.3593C84.6532 42.945 84.3459 42.5869 83.9684 42.3147V42.311ZM79.3125 73.4375H54.6485L55.8419 69.8574L68.8807 64.6434C69.2496 64.4943 69.5848 64.2725 69.8661 63.9911C70.1475 63.7098 70.3693 63.3746 70.5184 63.0057L75.7324 49.9669L79.3125 48.7735V73.4375Z" fill="#989292"/>
</svg>
