<svg width="16" height="12" viewBox="0 0 16 12" fill="none" xmlns="http://www.w3.org/2000/svg">
<path d="M6 5V2C6 1.73478 5.89464 1.48043 5.70711 1.29289C5.51957 1.10536 5.26522 1 5 1H2C1.73478 1 1.48043 1.10536 1.29289 1.29289C1.10536 1.48043 1 1.73478 1 2V5C1 5.26522 1.10536 5.51957 1.29289 5.70711C1.48043 5.89464 1.73478 6 2 6H5C5.26522 6 5.51957 5.89464 5.70711 5.70711C5.89464 5.51957 6 5.26522 6 5ZM6 5V7C6 8.06087 5.57857 9.07828 4.82843 9.82843C4.07828 10.5786 3.06087 11 2 11H1M15 5V2C15 1.73478 14.8946 1.48043 14.7071 1.29289C14.5196 1.10536 14.2652 1 14 1H11C10.7348 1 10.4804 1.10536 10.2929 1.29289C10.1054 1.48043 10 1.73478 10 2V5C10 5.26522 10.1054 5.51957 10.2929 5.70711C10.4804 5.89464 10.7348 6 11 6H14C14.2652 6 14.5196 5.89464 14.7071 5.70711C14.8946 5.51957 15 5.26522 15 5ZM15 5V7C15 8.06087 14.5786 9.07828 13.8284 9.82843C13.0783 10.5786 12.0609 11 11 11H10" stroke="white" stroke-width="2" stroke-linecap="round" stroke-linejoin="round"/>
</svg>
