<svg width="32" height="32" viewBox="0 0 32 32" fill="none" xmlns="http://www.w3.org/2000/svg">
<path d="M10.256 15.8625L12.136 16.4892C13.3786 16.9025 13.9986 17.1105 14.444 17.5559C14.8893 18.0012 15.0973 18.6225 15.5106 19.8625L16.1373 21.7425C17.1826 24.8812 17.7053 26.4492 18.6666 26.4492C19.6266 26.4492 20.1507 24.8812 21.196 21.7425L24.98 10.3932C25.716 8.1852 26.084 7.0812 25.5013 6.49853C24.9186 5.91587 23.8146 6.28387 21.608 7.01853L10.2546 10.8052C7.11998 11.8492 5.54932 12.3719 5.54932 13.3332C5.54932 14.2932 7.11865 14.8172 10.256 15.8625Z" fill="white"/>
<path d="M10.256 15.8625L12.136 16.4892C13.3786 16.9025 13.9986 17.1105 14.444 17.5559C14.8893 18.0012 15.0973 18.6225 15.5106 19.8625L16.1373 21.7425C17.1826 24.8812 17.7053 26.4492 18.6666 26.4492C19.6266 26.4492 20.1507 24.8812 21.196 21.7425L24.98 10.3932C25.716 8.1852 26.084 7.0812 25.5013 6.49853C24.9186 5.91587 23.8146 6.28387 21.608 7.01853L10.2546 10.8052C7.11998 11.8492 5.54932 12.3719 5.54932 13.3332C5.54932 14.2932 7.11865 14.8172 10.256 15.8625Z" fill="white"/>
<path d="M12.7012 18.4561L9.95186 17.5401C9.75948 17.476 9.555 17.4566 9.35399 17.4834C9.15297 17.5102 8.96072 17.5825 8.79186 17.6948L7.33853 18.6628C7.16649 18.7774 7.03146 18.9395 6.94987 19.1295C6.86828 19.3194 6.84365 19.529 6.87896 19.7327C6.91427 19.9364 7.00801 20.1254 7.14878 20.2768C7.28955 20.4282 7.47128 20.5354 7.67186 20.5854L10.2785 21.2361C10.3958 21.2654 10.503 21.326 10.5885 21.4115C10.6739 21.497 10.7346 21.6041 10.7639 21.7214L11.4145 24.3281C11.4645 24.5287 11.5718 24.7104 11.7232 24.8512C11.8746 24.992 12.0636 25.0857 12.2673 25.121C12.471 25.1563 12.6805 25.1317 12.8705 25.0501C13.0604 24.9685 13.2226 24.8335 13.3372 24.6614L14.3052 23.2081C14.4175 23.0392 14.4898 22.847 14.5166 22.646C14.5434 22.445 14.524 22.2405 14.4599 22.0481L13.5439 19.2988C13.4784 19.1026 13.3682 18.9243 13.2219 18.7781C13.0757 18.6318 12.8974 18.5216 12.7012 18.4561Z" fill="white"/>
</svg>
